<?xml version="1.0" encoding="UTF-8"?>
<svg id="Layer_1" xmlns="http://www.w3.org/2000/svg" version="1.1" viewBox="0 0 351.45 187.98">
  <!-- Generator: Adobe Illustrator 29.8.1, SVG Export Plug-In . SVG Version: 2.1.1 Build 2)  -->
  <g>
    <path d="M24.11,76.78c55.54-27.4,64.39-22.95,64.39-22.95,7.85,5.17,18.02,9.57,27.1,11.6-6.71-3.86-11.56-10.11-16.58-15.61-15.52-17.02-83.73,27.32-83.73,27.32,5.84,2.93,8.82-.36,8.82-.36Z"/>
    <path d="M190.79,37.45c-29.75-2.81-89.26,5.61-96.21,6.38-.33,0-.51.06-.51.06,11.01,3.41,15.77,15.16,25.87,20.17,10.17-2.57,21.11-2.64,31.53-2.75,12.98-.15,26.45,1.79,39.34.82-.66-.83-1.34-1.68-1.64-2.7-.29-1.02-.11-2.25.72-2.91.93-.73,2.28-.52,3.37-.05,2.27.97,4.03,2.8,6.01,4.28.76.57,1.55,1.08,2.41,1.47,3.65,1.66,8.21,1.16,12.12,1.46,4.37.33,8.74.67,13.11,1.02,3.78.31,11.78-.57,15.18,1.33-1.68-.94-3.07-6.84-9.44-12.54-6.27-6.3-24.98-9.46-24.98-9.46,0,0-11.8-1.97-23.51-2.91-11.71-.94-42.17-.66-42.17-.66,0,0,14.12-2.18,37.17-1.45,36.54-.03,47.4,8.01,46.43,5.08-.97-2.93-23.58-21.66-23.58-21.66-14.2-2.32-28.46-4.71-42.88-4.99-7.23-.14-14.48.26-21.63,1.41-6.77,1.09-15.19,2.15-20.55,6.77-1.83,1.58-5.62,3.55-4.25-.73.2-.62.33-1.34-.03-1.88-2.5-3.67-18.73,8.88-21.06,11.04-1.5,1.38-5.96,8.56-7.7,8.97,47.72-11.21,86.7-8.84,106.87-5.54Z"/>
    <path d="M227.25,42.61c5.36,5.73,17.33,22.62,21.34,25.97,2.28,1.91,5.13,3.75,8.26,3.35,1.58-.2,3.12-1.13,3.77-2.58,1.06-2.4-.54-5.14-.35-7.76.05-.63.22-1.3.7-1.73,1.14-1.02,2.9,0,4.08.98,4.65,3.85,9.67,7.24,14.98,10.11,8.37,4.52,16.74,2.68,25.82,4.02,5.94.88,11.87,2.06,17.72,3.44,0,0,18.9,6.75,10.39-6.06-3.78-5.68-11.7-9.31-17.46-12.48-16.92-9.28-34.53-17.33-52.76-23.68-18.41-6.41-36.72-9.59-55.83-12.91,0,0,14,13.59,19.36,19.32ZM266.06,50.5c-2.62-.09-5.23-.32-7.82-.67-5.19-.71-11.14-2.61-16.2-4.38,7.75-1.4,17.19,1.47,24.02,5.05Z"/>
  </g>
  <g>
    <path d="M55.17,110.95c-.89,0-1.68,0-2.46.1-2.96.59-7.19,4.04-9.86,5.62-2.76,1.58-11.43,8.58-11.43,11.83,0,.3.2.89.59.89.89,0,2.17-2.17,2.66-2.86,1.58-1.87,7.88-6.11,10.25-7.68,1.97-1.38,6.21-3.26,8.87-3.26,1.28,0,1.77.89,1.77,2.07,0,2.46-2.17,6.01-3.35,7.98-2.07,3.25-4.83,5.32-8.38,6.6-1.08.39-1.67,1.18-2.76,1.57-2.27,1.08-4.53,1.38-6.9,1.68-.69.1-.99.1-1.68.1-2.76,0-5.22-.98-5.22-4.13,0-1.97,3.55-8.77,4.53-10.74.49-1.28,2.07-4.93,3.45-5.42,5.52-2.07,11.04-4.73,16.06-7.78,6.8-4.04,12.12-8.96,17.15-15.27,3.15-4.04,6.21-9.66,6.7-14.88l.1-.3c0-1.68-3.45-2.76-4.83-2.76-1.87,0-4.24,2.17-5.91,3.26-2.07,1.18-3.84,2.95-5.71,4.53-3.06,2.66-5.91,5.12-8.67,7.78-5.03,4.83-9.66,9.95-14.29,15.47-2.86,3.55-6.21,6.8-9.56,10.05-3.25,3.05-15.08,3.15-15.08,6.2,0,.5.2.69.59.69,1.58,0,7.88-2.07,9.85-2.56.3,0,.2-.1.49-.1s.4.1.4.3c0,.69-.89,1.67-1.18,2.17-1.68,2.37-2.56,5.02-2.56,7.98,0,.69.1,1.28.1,1.97.49,3.55,4.53,7.59,7.98,7.89h.59c4.24,0,13.4-3.45,17.05-5.32,6.11-2.96,7.88-5.42,11.23-10.84,1.68-2.76,3.74-7,3.74-10.45,0-2.27-2.76-2.37-4.33-2.37ZM41.48,107.01c3.64-4.24,6.5-9.36,10.74-13.21,2.96-2.76,7.78-8.57,10.84-10.34,1.87-1.19,5.02-1.88,7.29-1.88.1,0,.69.1.69.39,0,.79-1.48,3.35-1.87,4.14-2.07,3.65-6.41,9.16-9.17,12.22-2.36,2.66-9.46,7.78-12.61,9.36-1.48.79-6.11,3.05-7.59,3.05-.3,0-.89-.1-.89-.59,0-.69,2.07-2.66,2.56-3.15Z"/>
    <path d="M135.94,130.86c1.18-1.58,1.87-2.96,1.87-4.93,0-1.08-.2-2.46-.69-3.55-.29-.69-.98-1.08-.98-1.77s0-1.48.29-1.97c1.87-2.66,5.42-.99,5.42-3.94,0-1.08-1.87-1.58-2.76-1.58-2.76,0-5.12.89-6.6,2.07-.39.39-.99.99-1.28,1.48-.3.69-1.87,1.48-3.35,2.76-.8.73-1.62,1.39-2.45,2.04-.31.07-.61.22-.92.53-1.53,1.21-3,2.38-4.47,3.54-.48.14-.61-.13-2.01,1.09-.62.54-.7.73-1.13,1.35-1.19.91-2.39,1.81-3.62,2.69-1.58,1.19-4.63,2.57-6.6,2.57-.39,0-1.18-.1-1.18-.4,0-.39.1-.69.2-.98,1.68-2.76,9.36-8.58,9.36-12.22,0-1.88-1.77-4.14-3.65-4.14-1.08,0-1.87.39-2.76.39-4.14,0-7.39,5.13-9.85,5.13-.2,0-.3-.1-.3-.3,0-.79,1.48-1.77,1.48-2.96,0-1.08-1.28-2.86-2.46-2.86-.69,0-1.28.3-1.78.59-1.48.79-2.26,2.17-3.35,3.25-1.77,1.61-3.49,3.21-5.37,4.82-2,1.65-4.51,3.66-6.47,3.66-.79,0-2.07-.69-2.07-1.57,0-1.08,1.68-1.38,1.68-3.64,0-.69-.2-1.09-.2-1.78s.2-1.08.2-1.57c0-1.08-1.58-2.86-2.27-3.75-.49-.59-1.18-.88-1.97-.88-1.97,0-3.75,1.57-5.62,2.46-2.66,1.18-6.21,3.94-8.18,6.21-1.87,2.17-5.91,5.91-5.91,8.87,0,3.84,2.86,5.22,6.31,5.22s9.16-4.14,11.04-7c.3-.39,1.18-1.58,1.68-1.58.29,0,1.38,1.77,4.24,1.77.69,0,1.18-.1,1.48-.19,1.18-.37,6.04-3.82,8.42-6.11,2.27-1.85,4.69-3.94,4.8-3.94.1,0,.2.1.2.3,0,.49-2.66,3.94-3.15,4.63-1.58,2.76-3.84,5.02-5.82,7.69-.59.59-.89,1.18-.89,1.87,0,1.68,1.77,1.77,3.06,1.77h.39c.89,0,1.58-.39,1.97-1.08,1.28-2.66,3.45-4.82,5.03-7.09,1.48-2.07,3.35-3.94,5.42-5.22,1.87-1.08,3.55-2.46,5.52-3.55.79-.3,1.48-.49,2.07-.49.49,0,1.77.1,1.77.79,0,1.97-10.35,9.66-10.35,13.21,0,.49.2.88.49,1.18,1.08,1.48,1.77,2.76,3.65,2.76s5.03-1.18,6.7-1.87c2.01-.77,3.74-1.91,5.56-3.33,0,.12-.02.27-.02.37,0,1.48.89,3.25,2.17,4.33,1.58,1.28,3.25,1.88,5.02,1.88h.89c.4,0,.69,0,.79-.1,1.67-.3,3.05-.69,4.53-1.38,2.27-.79,5.32-3.65,6.8-5.52ZM74.12,121.79c0,.69.2.99.2,1.68s-.1,1.28-.4,1.97c-1.08,2.07-5.12,6.9-7.69,6.9-1.28,0-1.97-.99-1.97-2.17,0-2.86,6.21-11.33,8.28-12.12.4-.1.89-.3,1.38-.3.4,0,1.28.1,1.28.79,0,.49-1.08,1.38-1.08,3.25ZM122.64,132.63c0-1.97,1.87-2.07,1.87-4.73,0-.69-.79-1.38-1.48-1.77-.1-.1-.2-.19-.2-.3.29-.59,5.02-4.33,6.7-5.71.3-.19.49-.3.59-.3,0,.3-.1.79-.1.99q-.1.69-.1,1.58l.1.98c.1,1.48,1.08,3.15,1.08,4.64,0,3.64-2.46,6.6-6.5,6.6-1.08,0-1.97-.89-1.97-1.97Z"/>
    <path d="M196.37,83.85c-.3,0-.4.1-.69.1-1.58.1-1.97,1.28-2.66,2.46-.69,1.18-1.28,1.68-1.28,3.15,0,1.18.59,2.07,1.87,2.07,2.86,0,5.81-3.84,5.81-6.21,0-1.48-1.97-1.57-3.05-1.57Z"/>
    <path d="M286.99,83.95c-1.58.1-1.97,1.28-2.66,2.46-.69,1.18-1.28,1.68-1.28,3.15,0,1.18.59,2.07,1.87,2.07,2.86,0,5.81-3.84,5.81-6.21,0-1.48-1.97-1.57-3.06-1.57-.29,0-.39.1-.69.1Z"/>
    <path d="M339.73,121.4c-.4,0-.79.19-1.18.59-3.84,3.05-7.39,5.91-11.23,8.67-1.58,1.19-4.63,2.57-6.6,2.57-.39,0-1.18-.1-1.18-.4,0-.39.1-.69.2-.98,1.68-2.76,9.36-8.58,9.36-12.22,0-1.88-1.77-4.14-3.65-4.14-1.08,0-1.87.39-2.76.39-4.14,0-7.39,5.13-9.85,5.13-.2,0-.3-.1-.3-.3,0-.79,1.48-1.77,1.48-2.96,0-1.08-1.28-2.86-2.46-2.86-.69,0-1.28.3-1.78.59-1.48.79-2.26,2.17-3.35,3.25-1.77,1.61-3.49,3.21-5.37,4.82-2,1.65-4.51,3.66-6.47,3.66-.79,0-2.07-.69-2.07-1.57,0-1.08,1.68-1.38,1.68-3.64,0-.69-.2-1.09-.2-1.78s.2-1.08.2-1.57c0-1.08-1.58-2.86-2.27-3.75-.49-.59-1.18-.88-1.97-.88-1.97,0-3.75,1.57-5.62,2.46-2.45,1.08-5.63,3.5-7.66,5.65-2.67,2.14-11.61,9.52-13.93,9.52-.69,0-1.58,0-1.58-.88,0-2.57,5.62-10.15,7.49-12.33.49-.69.99-1.28.99-2.17,0-1.18-1.09-1.97-2.17-1.97-2.17,0-5.71,6.7-7.59,8.27-.08.07-.14.16-.22.23-4,3.03-11.93,9.92-15.86,9.92-1.08,0-1.58-.69-1.58-1.77,0-2.26,2.37-3.84,3.15-5.81.4-1.09.89-1.97,1.28-3.06,1.08-2.37,2.96-4.04,4.24-6.31,2.07-3.45,4.73-6.51,7.19-9.56.79-.89,1.97-.89,3.05-.89s2.07.1,3.15.1c3.84,0,7.69-.59,11.53-.59h4.53c.79,0,1.48,0,2.27.19.79.1,1.58.3,2.36.3,1.18,0,2.27-.1,3.35-.1,1.38-.2,2.86-.2,4.24-.2h7c1.08,0,2.17-.39,2.17-1.48,0-.79-.59-.79-1.28-.79-1.28,0-2.56.19-4.04.19-2.37,0-4.63-.49-7-.49h-1.28c-3.45.1-6.4.49-9.85.49h-.79c-4.63-.3-8.87-.1-13.5-.49-.79-.1-2.56-.39-2.56-1.48,0-.3.2-.69.49-.99,1.48-1.68,2.86-3.25,4.14-5.13,1.18-1.87,2.37-3.35,4.04-4.83,1.08-.79,3.84-5.02,3.84-6.2,0-.89-.89-.99-1.58-.99s-1.18,0-1.48.1c-1.97.2-3.65,3.25-4.93,4.73-2.27,2.46-4.43,5.02-5.91,8.08-.79,1.77-3.35,5.22-4.83,6.2-.79.69-2.07.69-3.15.69-1.87,0-3.55-.1-5.22-.1-1.8,0-3.41.24-5.04.34-1.95-.11-3.86-.44-5.83-.44h-1.28c-3.45.1-6.4.49-9.85.49h-.79c-4.63-.3-8.87-.1-13.5-.49-.79-.1-2.56-.39-2.56-1.48,0-.3.2-.69.49-.99,1.48-1.68,2.86-3.25,4.14-5.13,1.18-1.87,2.37-3.35,4.04-4.83,1.08-.79,3.84-5.02,3.84-6.2,0-.89-.89-.99-1.58-.99s-1.18,0-1.48.1c-1.97.2-3.65,3.25-4.93,4.73-2.27,2.46-4.43,5.02-5.91,8.08-.79,1.77-3.35,5.22-4.83,6.2-.41.36-.96.53-1.54.61-.71-.06-1.41-.11-2.13-.11h-1.28c-.84.02-1.66.07-2.46.11-.32,0-.65-.02-.97-.02-2.19,0-4.11.36-6.1.39-.09,0-.17,0-.26,0-.71,0-1.41-.03-2.12-.05-4.14-.19-8.03-.08-12.23-.43-.79-.1-2.56-.39-2.56-1.48,0-.3.2-.69.49-.99,1.48-1.68,2.86-3.25,4.14-5.13,1.18-1.87,2.36-3.35,4.04-4.83,1.08-.79,3.84-5.02,3.84-6.2,0-.89-.89-.99-1.57-.99s-1.18,0-1.48.1c-1.97.2-3.65,3.25-4.93,4.73-2.27,2.46-4.43,5.02-5.91,8.08-.79,1.77-3.35,5.22-4.83,6.2-.79.69-2.07.69-3.15.69-1.87,0-3.55-.1-5.22-.1-2.27,0-4.24.39-6.31.39-1.28,0-2.56-.1-3.84-.1-1.18,0-2.27.1-3.35.3-.59.1-.89.49-.89.99,0,.39.2.69.59.88.59.3,4.34.3,5.62.3h3.25c1.08,0,1.87.1,2.96.1,1.28,0,2.46-.39,3.74-.39,1.08,0,2.17.39,3.25.5.49,0,.69.19.69.49,0,.39-.39,1.08-.69,1.48-2.07,2.86-6.99,9.46-9.75,11.63-.89.69-1.58,1.48-2.46,2.17-1.87,1.57-3.45,3.15-5.32,4.63-.29.3-1.08.69-1.08,1.08,0,.3.69.39.99.39,1.38,0,4.14-3.06,5.12-3.06.2,0,.3,0,.39.1,0,.49-4.14,5.91-4.14,7.98,0,2.27,2.66,3.95,4.63,3.95.3,0,.39-.1.69-.1,1.48-.69,3.15-.49,4.63-1.38,1.28-.79,2.76-1.28,4.04-2.07,2.5-1.54,4.74-3.33,6.91-5.19-.77,1.14-1.49,2.27-2.17,3.41-.39.69-.79,1.48-.79,2.27,0,1.68,1.77,3.35,3.45,3.35,1.48,0,3.05-.59,4.33-1.08,2.66-1.08,5.22-3.25,7.49-4.93.58-.49,2.59-2.09,4.63-3.81,1.38-.88,3.04-2.5,3.75-2.5.2,0,.3,0,.39.1,0,.49-4.14,5.91-4.14,7.98,0,2.27,2.66,3.95,4.63,3.95.3,0,.39-.1.69-.1,1.48-.69,3.15-.49,4.63-1.38,1.28-.79,2.76-1.28,4.04-2.07,1.04-.64,2.04-1.33,3.01-2.05-.09.39-.14.78-.14,1.16,0,2.86,1.67,4.24,4.43,4.24,1.97,0,5.03-.79,6.7-1.87.69-.69,4.34-2.57,5.22-2.57.49,0,.49.5.49.89,0,.1-.2,1.18-.2,1.68,0,1.28,1.18,1.57,2.27,1.57,1.67,0,5.22-.3,6.7-.99,1.21-.73,7.11-4.86,11.45-8.39,1.26-.9,2.61-2.15,3.25-2.15.2,0,.3,0,.39.1,0,.49-4.14,5.91-4.14,7.98,0,2.27,2.66,3.95,4.63,3.95.3,0,.39-.1.69-.1,1.48-.69,3.15-.49,4.63-1.38,1.28-.79,2.76-1.28,4.04-2.07,2.5-1.54,4.74-3.33,6.91-5.19-.77,1.14-1.49,2.28-2.17,3.41-.39.69-.79,1.48-.79,2.27,0,1.68,1.77,3.35,3.45,3.35,1.48,0,3.05-.59,4.33-1.08,2.66-1.08,5.22-3.25,7.49-4.93.35-.29,1.21-.99,2.29-1.87-.54.95-.9,1.89-.9,2.76,0,3.84,2.86,5.22,6.31,5.22s9.16-4.14,11.04-7c.3-.39,1.18-1.58,1.68-1.58.29,0,1.38,1.77,4.24,1.77.69,0,1.18-.1,1.48-.19,1.18-.37,6.04-3.82,8.42-6.11,2.27-1.85,4.69-3.94,4.8-3.94.1,0,.2.1.2.3,0,.49-2.66,3.94-3.15,4.63-1.58,2.76-3.84,5.02-5.82,7.69-.59.59-.89,1.18-.89,1.87,0,1.68,1.77,1.77,3.06,1.77h.39c.89,0,1.58-.39,1.97-1.08,1.28-2.66,3.45-4.82,5.03-7.09,1.48-2.07,3.35-3.94,5.42-5.22,1.87-1.08,3.55-2.46,5.52-3.55.79-.3,1.48-.49,2.07-.49.49,0,1.77.1,1.77.79,0,1.97-10.35,9.66-10.35,13.21,0,.49.2.88.49,1.18,1.08,1.48,1.77,2.76,3.65,2.76s5.03-1.18,6.7-1.87c2.07-.79,3.84-1.97,5.72-3.45,1.38-1.08,10.25-8.08,10.25-9.27,0-.3-.2-.49-.49-.49ZM186.23,121.3c-.63.53-1.23,1.06-1.81,1.59-3.41,2.75-10.88,8.75-12.98,8.75-.69,0-1.58,0-1.58-.88,0-2.57,5.62-10.15,7.49-12.33.49-.69.99-1.28.99-2.17,0-1.18-1.09-1.97-2.17-1.97-2.17,0-5.71,6.7-7.59,8.27-.08.07-.14.16-.22.23-4,3.03-11.93,9.92-15.86,9.92-1.08,0-1.58-.69-1.58-1.77,0-2.26,2.37-3.84,3.15-5.81.4-1.09.89-1.97,1.28-3.06,1.08-2.37,2.96-4.04,4.24-6.31,2.07-3.45,4.73-6.51,7.19-9.56.79-.89,1.97-.89,3.05-.89s2.07.1,3.15.1c2.25,0,4.49-.19,6.74-.36.8.26,4.27.26,5.5.26h3.25c1.08,0,1.87.1,2.96.1.55,0,1.08-.07,1.6-.16.21.02.43.06.64.06,1.09,0,2.1-.08,3.11-.09.55.11,1.09.24,1.64.29.49,0,.69.19.69.49,0,.39-.39,1.08-.69,1.48-2.07,2.86-7,9.46-9.76,11.63-.89.69-1.58,1.48-2.46,2.17ZM239.67,121.3c-.54.45-1.06.91-1.56,1.36-4.12,3.12-12.29,10.16-15.21,10.16-.49,0-.79-.19-.79-.59,0-.3.1-.2.1-.5.89-2.46,2.17-5.12,3.55-7.39,1.48-2.36,6.7-4.83,6.7-7.98,0-1.09-1.18-1.28-1.97-1.28-.1,0-.3.1-.79.1-1.87,0-2.96,1.97-4.04,3.45-1.09,1.48-2.46,2.76-4.04,3.84-.29.1-.49.39-.79.79-1.28,1.58-2.07,2.96-3.74,4.44-2.56,1.97-7.29,5.81-10.64,5.81-.79,0-1.18-.39-1.18-1.08,0-2.86,6.7-8.96,8.77-10.84.79-.59,1.58-1.28,2.27-1.97.59-.59.89-1.28.89-2.17,0-1.08-.59-2.07-1.67-2.07-.69,0-1.28.19-1.77.59-3.25,1.88-3.06,2.66-5.52,5.13-1.08,1.08-2.07,1.68-3.25,2.46-1.1.65-2.29,1.66-3.32,2.82-3.93,3.04-8.56,6.34-11.27,6.34-1.08,0-1.58-.69-1.58-1.77,0-2.26,2.37-3.84,3.15-5.81.4-1.09.89-1.97,1.28-3.06,1.08-2.37,2.96-4.04,4.24-6.31,2.07-3.45,4.73-6.51,7.19-9.56.79-.89,1.97-.89,3.05-.89s2.07.1,3.15.1c3.84,0,7.69-.59,11.53-.59h4.53c.79,0,1.48,0,2.27.19.79.1,1.58.3,2.36.3,1.06,0,2.04-.07,3.01-.09,1.38.08,3.27.09,4.11.09h3.25c1.08,0,1.87.1,2.96.1,1.28,0,2.46-.39,3.74-.39,1.08,0,2.17.39,3.25.5.49,0,.69.19.69.49,0,.39-.39,1.08-.69,1.48-2.07,2.86-7,9.46-9.76,11.63-.89.69-1.58,1.48-2.46,2.17ZM288.18,121.79c0,.69.2.99.2,1.68s-.1,1.28-.4,1.97c-1.08,2.07-5.12,6.9-7.69,6.9-1.28,0-1.97-.99-1.97-2.17,0-2.86,6.21-11.33,8.28-12.12.4-.1.89-.3,1.38-.3.4,0,1.28.1,1.28.79,0,.49-1.08,1.38-1.08,3.25Z"/>
  </g>
  <g>
    <path d="M108.87,170.38h-7.82v-18.18h11.88l9.4,11.35,9.56-11.35h11.72v18.18h-7.79v-12.95l-10.89,12.95h-5.26l-10.8-12.95v12.95Z"/>
    <path d="M195.88,156.63h-20.74v3.25h19.54v4.39h-19.54v6.1h-8.04v-18.18h28.78v4.43Z"/>
    <path d="M242.06,158.76v-.05c0-.84-.37-1.41-1.1-1.72-.73-.31-2.38-.46-4.96-.46h-4.69c-2.75,0-4.51.23-5.28.68-.77.46-1.16,1.42-1.16,2.89v2.53c0,1.31.44,2.21,1.31,2.7s2.6.73,5.17.73h4.65c2.31,0,3.91-.14,4.78-.43.87-.29,1.31-.79,1.31-1.5,0-.1-.02-.26-.07-.49v-.06h-9.47v-3.67h17.84v5.97c0,1.71-.92,2.92-2.75,3.64-1.83.72-5.03,1.08-9.58,1.08h-8.96c-2.75,0-4.78-.1-6.09-.31-1.31-.2-2.42-.55-3.33-1.04-1.06-.58-1.83-1.29-2.32-2.13-.48-.84-.73-1.91-.73-3.19v-4.96c0-2.6.89-4.42,2.68-5.45,1.79-1.03,5.04-1.54,9.74-1.54h8.99c2.9,0,5.04.09,6.42.27,1.38.18,2.47.48,3.26.9.83.44,1.44,1.03,1.83,1.78.4.75.59,1.68.59,2.8,0,.27,0,.48,0,.62s-.01.28-.03.4h-8.07Z"/>
  </g>
</svg>